<?xml version="1.0" encoding="UTF-8"?>
<svg width="256" height="256" viewBox="0 0 256 256" fill="none" xmlns="http://www.w3.org/2000/svg">
  <defs>
    <linearGradient id="grad1" x1="0%" y1="0%" x2="100%" y2="100%">
      <stop offset="0%" style="stop-color:#8B5CF6;stop-opacity:1" />
      <stop offset="100%" style="stop-color:#7C3AED;stop-opacity:1" />
    </linearGradient>
    <filter id="glow">
      <feGaussianBlur stdDeviation="4" result="coloredBlur"/>
      <feMerge>
        <feMergeNode in="coloredBlur"/>
        <feMergeNode in="SourceGraphic"/>
      </feMerge>
    </filter>
  </defs>
  
  <!-- Background circle -->
  <circle cx="128" cy="128" r="120" fill="url(#grad1)" filter="url(#glow)"/>
  
  <!-- Microphone icon -->
  <path d="M128 40C116.954 40 108 48.954 108 60V108C108 119.046 116.954 128 128 128C139.046 128 148 119.046 148 108V60C148 48.954 139.046 40 128 40Z" fill="white"/>
  <path d="M88 108C88 108 88 140 128 156C168 140 168 108 168 108" stroke="white" stroke-width="12" stroke-linecap="round" fill="none"/>
  <line x1="128" y1="156" x2="128" y2="180" stroke="white" stroke-width="12" stroke-linecap="round"/>
  <line x1="100" y1="180" x2="156" y2="180" stroke="white" stroke-width="12" stroke-linecap="round"/>
  
  <!-- Sound waves -->
  <path d="M178 80C190 90 196 104 196 120C196 136 190 150 178 160" stroke="white" stroke-width="8" stroke-linecap="round" fill="none" opacity="0.7"/>
  <path d="M78 80C66 90 60 104 60 120C60 136 66 150 78 160" stroke="white" stroke-width="8" stroke-linecap="round" fill="none" opacity="0.7"/>
</svg>
